<svg xmlns="http://www.w3.org/2000/svg" width="512" height="512" viewBox="0 0 512 512"><path d="M 87,403 L 86,404 L 84,404 L 83,405 L 81,405 L 80,406 L 79,406 L 77,408 L 76,408 L 69,415 L 69,416 L 68,417 L 68,418 L 67,419 L 67,420 L 66,421 L 66,423 L 65,424 L 65,427 L 64,428 L 64,485 L 65,486 L 65,490 L 66,491 L 66,492 L 67,493 L 67,494 L 68,495 L 68,496 L 69,497 L 69,498 L 76,505 L 77,505 L 79,507 L 80,507 L 81,508 L 82,508 L 83,509 L 85,509 L 86,510 L 92,510 L 93,511 L 418,511 L 419,510 L 425,510 L 426,509 L 428,509 L 429,508 L 430,508 L 431,507 L 432,507 L 434,505 L 435,505 L 442,498 L 442,497 L 443,496 L 443,495 L 444,494 L 444,493 L 445,492 L 445,490 L 446,489 L 446,486 L 447,485 L 447,428 L 446,427 L 446,424 L 445,423 L 445,421 L 444,420 L 444,419 L 443,418 L 443,417 L 442,416 L 442,415 L 435,408 L 434,408 L 432,406 L 431,406 L 430,405 L 428,405 L 427,404 L 425,404 L 424,403 Z" fill="orange"/><path d="M 255,0 L 254,1 L 242,1 L 241,2 L 236,2 L 235,3 L 231,3 L 230,4 L 228,4 L 227,5 L 224,5 L 223,6 L 221,6 L 220,7 L 219,7 L 218,8 L 216,8 L 215,9 L 214,9 L 213,10 L 212,10 L 211,11 L 210,11 L 209,12 L 208,12 L 207,13 L 206,13 L 205,14 L 204,14 L 203,15 L 202,15 L 200,17 L 199,17 L 197,19 L 196,19 L 193,22 L 192,22 L 188,26 L 187,26 L 178,35 L 178,36 L 173,41 L 173,42 L 170,45 L 170,46 L 168,48 L 168,49 L 167,50 L 167,51 L 165,53 L 165,54 L 164,55 L 164,56 L 163,57 L 163,58 L 162,59 L 162,60 L 161,61 L 161,62 L 160,63 L 160,65 L 159,66 L 159,67 L 158,68 L 158,70 L 157,71 L 157,73 L 156,74 L 156,76 L 155,77 L 155,80 L 154,81 L 154,85 L 153,86 L 153,92 L 152,93 L 152,116 L 153,117 L 153,122 L 154,123 L 154,127 L 155,128 L 155,131 L 156,132 L 156,134 L 157,135 L 157,137 L 158,138 L 158,140 L 159,141 L 159,143 L 160,144 L 160,145 L 161,146 L 161,147 L 162,148 L 162,149 L 163,150 L 163,151 L 164,152 L 164,153 L 165,154 L 165,155 L 166,156 L 166,157 L 168,159 L 168,160 L 170,162 L 170,163 L 172,165 L 172,166 L 175,169 L 175,170 L 190,185 L 191,185 L 194,188 L 195,188 L 197,190 L 198,190 L 200,192 L 201,192 L 203,194 L 204,194 L 205,195 L 206,195 L 207,196 L 208,196 L 209,197 L 210,197 L 211,198 L 212,198 L 213,199 L 214,199 L 215,200 L 217,200 L 218,201 L 219,201 L 220,202 L 222,202 L 223,203 L 225,203 L 227,205 L 227,322 L 226,323 L 182,323 L 181,324 L 180,324 L 179,325 L 178,325 L 174,329 L 174,330 L 173,331 L 173,333 L 172,334 L 172,371 L 339,371 L 339,334 L 338,333 L 338,331 L 337,330 L 337,329 L 333,325 L 332,325 L 331,324 L 330,324 L 329,323 L 285,323 L 284,322 L 284,205 L 286,203 L 288,203 L 289,202 L 291,202 L 292,201 L 293,201 L 294,200 L 296,200 L 297,199 L 298,199 L 299,198 L 300,198 L 301,197 L 302,197 L 303,196 L 304,196 L 305,195 L 306,195 L 307,194 L 308,194 L 310,192 L 311,192 L 313,190 L 314,190 L 316,188 L 317,188 L 320,185 L 321,185 L 336,170 L 336,169 L 339,166 L 339,165 L 341,163 L 341,162 L 343,160 L 343,159 L 345,157 L 345,156 L 346,155 L 346,154 L 347,153 L 347,152 L 348,151 L 348,150 L 349,149 L 349,148 L 350,147 L 350,146 L 351,145 L 351,144 L 352,143 L 352,141 L 353,140 L 353,138 L 354,137 L 354,135 L 355,134 L 355,132 L 356,131 L 356,128 L 357,127 L 357,123 L 358,122 L 358,117 L 359,116 L 359,93 L 358,92 L 358,86 L 357,85 L 357,81 L 356,80 L 356,77 L 355,76 L 355,74 L 354,73 L 354,71 L 353,70 L 353,68 L 352,67 L 352,66 L 351,65 L 351,63 L 350,62 L 350,61 L 349,60 L 349,59 L 348,58 L 348,57 L 347,56 L 347,55 L 346,54 L 346,53 L 344,51 L 344,50 L 343,49 L 343,48 L 341,46 L 341,45 L 338,42 L 338,41 L 333,36 L 333,35 L 324,26 L 323,26 L 319,22 L 318,22 L 315,19 L 314,19 L 312,17 L 311,17 L 309,15 L 308,15 L 307,14 L 306,14 L 305,13 L 304,13 L 303,12 L 302,12 L 301,11 L 300,11 L 299,10 L 298,10 L 297,9 L 296,9 L 295,8 L 293,8 L 292,7 L 291,7 L 290,6 L 288,6 L 287,5 L 284,5 L 283,4 L 281,4 L 280,3 L 276,3 L 275,2 L 270,2 L 269,1 L 257,1 L 256,0 Z" fill="orange"/></svg>